<?xml version="1.0" standalone="no"?>
<!DOCTYPE svg PUBLIC "-//W3C//DTD SVG 1.1//EN" "http://www.w3.org/Graphics/SVG/1.1/DTD/svg11.dtd" >
<svg xmlns="http://www.w3.org/2000/svg">
<metadata>Generated by IcoMoon</metadata>
<defs>
<font id="icomoon" horiz-adv-x="1024">
<font-face units-per-em="1024" ascent="960" descent="-64" />
<missing-glyph horiz-adv-x="1024" />
<glyph unicode="&#x20;" horiz-adv-x="512" d="" />
<glyph unicode="&#xe900;" glyph-name="activity" d="M512 906.752c-253.952 0-458.752-204.8-458.752-458.752s206.848-460.8 460.8-460.8c253.952 0 460.8 206.848 460.8 460.8-2.048 253.952-208.896 458.752-462.848 458.752zM894.976 484.864h-188.416c8.192 96.256 47.104 182.272 75.776 233.472 61.44-59.392 102.4-141.312 112.64-233.472zM550.912 484.864v344.064c61.44-6.144 120.832-26.624 169.984-59.392-32.768-57.344-81.92-161.792-92.16-282.624h-77.824zM475.136 484.864h-77.824c-8.192 120.832-59.392 225.28-92.16 282.624 49.152 32.768 108.544 53.248 169.984 59.392v-342.016zM475.136 409.088v-344.064c-61.44 6.144-120.832 26.624-169.984 59.392 32.768 57.344 81.92 161.792 92.16 282.624h77.824zM628.736 409.088c8.192-120.832 59.392-225.28 92.16-282.624-49.152-32.768-108.544-53.248-169.984-59.392v342.016h77.824zM243.712 720.384c28.672-51.2 67.584-137.216 75.776-233.472h-188.416c8.192 90.112 51.2 172.032 112.64 233.472zM131.072 409.088h188.416c-8.192-96.256-47.104-182.272-75.776-233.472-61.44 59.392-104.448 141.312-112.64 233.472zM782.336 175.616c-28.672 51.2-67.584 137.216-75.776 233.472h188.416c-10.24-92.16-51.2-174.080-112.64-233.472z" />
<glyph unicode="&#xe901;" glyph-name="blog" d="M143.36 241.152l489.472 489.472 163.84-161.792-489.472-489.472-163.84 161.792zM796.672 892.416c22.528 22.528 59.392 22.528 81.92 0l81.92-81.92c22.528-22.528 22.528-59.392 0-81.92l-122.88-122.88-163.84 161.792 122.88 124.928zM49.152-14.848l53.248 215.040 163.84-161.792-217.088-53.248z" />
<glyph unicode="&#xe902;" glyph-name="contact" d="M684.032 470.528l286.72 278.528c8.192-8.192 12.288-18.432 12.288-30.72v-559.104c0-12.288-4.096-22.528-12.288-30.72l-286.72 342.016zM55.296 751.104c8.192 6.144 18.432 12.288 28.672 12.288h854.016c12.288 0 22.528-4.096 28.672-12.288l-454.656-356.352-456.704 356.352zM53.248 128.512c-8.192 8.192-12.288 18.432-12.288 30.72v559.104c0 12.288 4.096 22.528 12.288 30.72l286.72-278.528-286.72-342.016zM512 304.64l118.784 116.736 337.92-294.912c-8.192-8.192-18.432-12.288-30.72-12.288h-851.968c-12.288 0-22.528 4.096-30.72 12.288l337.92 294.912 118.784-116.736z" />
<glyph unicode="&#xe903;" glyph-name="demo" d="M858.112 353.792c-8.192-28.672-20.48-55.296-34.816-81.92 2.048-2.048 77.824-98.304 30.72-145.408l-22.528-22.528c-34.816-34.816-122.88 20.48-143.36 34.816-26.624-14.336-55.296-26.624-86.016-34.816h6.144c0 0-16.384-124.928-83.968-124.928h-22.528c-51.2 0-79.872 106.496-83.968 126.976-30.72 8.192-59.392 20.48-83.968 36.864l4.096-4.096c0 0-98.304-77.824-147.456-30.72l-20.48 18.432c-36.864 36.864 22.528 131.072 32.768 149.504-14.336 24.576-24.576 51.2-32.768 79.872-20.48 2.048-129.024 30.72-129.024 81.92v22.528c0 59.392 102.4 79.872 126.976 83.968 8.192 28.672 18.432 55.296 32.768 79.872-10.24 16.384-71.68 112.64-34.816 149.504l22.528 18.432c40.96 40.96 126.976-18.432 147.456-32.768 24.576 14.336 53.248 26.624 81.92 34.816 6.144 24.576 34.816 124.928 83.968 124.928h22.528c57.344 0 77.824-96.256 81.92-124.928 28.672-8.192 57.344-18.432 81.92-34.816 22.528 14.336 110.592 69.632 145.408 34.816l20.48-22.528c40.96-40.96-16.384-122.88-32.768-145.408 14.336-24.576 26.624-53.248 34.816-81.92 8.192-2.048 124.928-18.432 124.928-83.968v-22.528c2.048-49.152-96.256-77.824-122.88-83.968zM512 712.192c-145.408 0-264.192-118.784-264.192-264.192s118.784-264.192 264.192-264.192 264.192 118.784 264.192 264.192-118.784 264.192-264.192 264.192zM512 271.872c-98.304 0-176.128 79.872-176.128 176.128 0 98.304 79.872 176.128 176.128 176.128s176.128-79.872 176.128-176.128c0-98.304-77.824-176.128-176.128-176.128zM512 536.064c-49.152 0-88.064-38.912-88.064-88.064s38.912-88.064 88.064-88.064 88.064 38.912 88.064 88.064-38.912 88.064-88.064 88.064z" />
<glyph unicode="&#xe904;" glyph-name="developers" d="M240.496 688c-13.504 0-25.664-5.632-34.384-14.608l-0.048 0.048-189.216-189.2c-10.24-8.8-16.848-21.696-16.848-36.24 0-13.504 5.616-25.664 14.592-34.368l-0.032-0.064 192.048-191.936c8.64-8.416 20.384-13.632 33.392-13.632 26.512 0 48 21.488 48 48 0 12.992-5.216 24.752-13.616 33.392l0.048 0.048-158.304 158.32 157.76 157.856c8.976 8.72 14.608 20.88 14.608 34.384 0 26.512-21.488 48-48 48zM1024.496 448c0 14.56-6.608 27.44-16.848 36.24l-189.248 189.152c-8.736 8.976-20.896 14.608-34.4 14.608-26.512 0-48-21.488-48-48 0-13.504 5.632-25.664 14.608-34.384l-0.048-0.048 157.808-157.808-158.272-158.368c-8.384-8.64-13.616-20.384-13.616-33.392 0-26.512 21.488-48 48-48 12.992 0 24.752 5.216 33.408 13.632l0.048-0.064 191.952 192.064c8.992 8.704 14.608 20.864 14.608 34.368zM640 832c-20.8 0-38.496-13.232-45.168-31.712l-255.632-671.072c-2.064-5.344-3.2-11.152-3.2-17.216 0-26.512 21.488-48 48-48 20.8 0 38.496 13.232 45.168 31.712l255.632 671.072c2.080 5.344 3.2 11.136 3.2 17.216 0 26.512-21.488 48-48 48z" />
<glyph unicode="&#xe905;" glyph-name="email" d="M686.080 476.672l286.72 278.528c8.192-8.192 12.288-18.432 12.288-30.72v-559.104c0-12.288-4.096-22.528-12.288-30.72l-286.72 342.016zM57.344 757.248c8.192 6.144 18.432 12.288 28.672 12.288h854.016c12.288 0 22.528-4.096 28.672-12.288l-456.704-356.352-454.656 356.352zM55.296 134.656c-8.192 8.192-12.288 18.432-12.288 30.72v559.104c0 12.288 4.096 22.528 12.288 30.72l286.72-278.528-286.72-342.016zM514.048 310.784l118.784 116.736 337.92-294.912c-8.192-8.192-18.432-12.288-30.72-12.288h-854.016c-12.288 0-22.528 4.096-30.72 12.288l337.92 294.912 120.832-116.736z" />
<glyph unicode="&#xe906;" glyph-name="facebook" d="M731.136 613.888h-149.504v98.304c0 36.864 24.576 45.056 40.96 45.056s106.496 0 106.496 0v163.84h-145.408c-161.792 0-198.656-120.832-198.656-198.656v-108.544h-94.208v-165.888h94.208c0-215.040 0-473.088 0-473.088h196.608c0 0 0 260.096 0 473.088h133.12l16.384 165.888z" />
<glyph unicode="&#xe907;" glyph-name="faq" d="M874.496 519.68c-14.336-10.24-16.384-75.776 67.584-116.736 0 0-120.832-18.432-196.608 77.824-18.432-2.048-38.912-8.192-57.344-8.192-163.84 0-264.192 94.208-264.192 212.992 0 116.736 100.352 212.992 264.192 212.992s292.864-96.256 292.864-215.040c0-65.536-38.912-124.928-106.496-163.84zM368.64 663.040c8.192-131.072 122.88-239.616 299.008-249.856 20.48 0 38.912 4.096 59.392 6.144 0 0 0 0 0 0l6.144 2.048c51.2-53.248 114.688-61.44 151.552-63.488-36.864-143.36-178.176-247.808-393.216-247.808-30.72 0-59.392 8.192-88.064 12.288-118.784-145.408-301.056-116.736-301.056-116.736 129.024 61.44 126.976 163.84 104.448 176.128-102.4 59.392-163.84 151.552-163.84 251.904 0 153.6 143.36 282.624 342.016 317.44-12.288-26.624-16.384-57.344-16.384-88.064z" />
<glyph unicode="&#xe908;" glyph-name="flags" d="M40.96 919.040l239.616-942.080h73.728l-237.568 942.080zM864.256 722.432h-157.696l-38.912 157.696h-471.040l116.736-471.040h118.784l38.912-157.696h512l-118.784 471.040zM299.008 800.256h309.248l77.824-313.344h-309.248l-77.824 313.344zM645.12 409.088l-112.64-75.776-18.432 73.728h131.072zM786.432 409.088l-59.392 235.52h75.776l77.824-313.344h-210.944l116.736 77.824z" />
<glyph unicode="&#xe909;" glyph-name="food" d="M702.464 726.528c-71.68 0-112.64-16.384-143.36-36.864 20.48 45.056 69.632 114.688 182.272 114.688 22.528 0 38.912 18.432 38.912 38.912s-18.432 38.912-38.912 38.912c-114.688 0-180.224-53.248-217.088-98.304-2.048-2.048-4.096-6.144-6.144-10.24-20.48 73.728-57.344 145.408-118.784 145.408-24.576 0-53.248-10.24-86.016-36.864-77.824-61.44-65.536-114.688-20.48-157.696-112.64-8.192-251.904-92.16-251.904-311.296 0-178.176 192.512-430.080 350.208-430.080 77.824 0 92.16 18.432 116.736 38.912 24.576-20.48 40.96-38.912 116.736-38.912 157.696 0 350.208 249.856 350.208 430.080 2.048 233.472-157.696 313.344-272.384 313.344zM362.496 820.736c24.576 20.48 36.864 20.48 36.864 20.48 16.384-6.144 38.912-55.296 53.248-118.784-59.392 24.576-106.496 53.248-116.736 71.68 2.048 4.096 10.24 14.336 26.624 26.624zM624.64 62.976c-43.008 0-47.104 4.096-61.44 16.384l-6.144 6.144c-14.336 12.288-32.768 18.432-49.152 18.432s-34.816-6.144-49.152-18.432l-6.144-6.144c-14.336-12.288-18.432-16.384-61.44-16.384-110.592 0-272.384 210.944-272.384 352.256 0 227.328 174.080 233.472 194.56 233.472 75.776 0 96.256-18.432 133.12-49.152 4.096-4.096 8.192-8.192 12.288-10.24 14.336-12.288 32.768-18.432 51.2-18.432s34.816 6.144 51.2 18.432c4.096 4.096 8.192 8.192 12.288 10.24 34.816 30.72 57.344 49.152 133.12 49.152 20.48 0 194.56-6.144 194.56-233.472-2.048-143.36-165.888-352.256-276.48-352.256z" />
<glyph unicode="&#xe90a;" glyph-name="google" d="M573.44 321.024l129.024 4.096v-112.64c0-16.384 0-18.432-26.624-26.624-36.864-10.24-77.824-12.288-116.736-8.192-129.024 10.24-227.328 112.64-251.904 241.664-22.528 120.832 34.816 235.52 131.072 282.624 47.104 22.528 104.448 34.816 165.888 14.336 38.912-12.288 73.728-34.816 104.448-65.536l-20.48-38.912 38.912 12.288 61.44 63.488c-104.448 86.016-282.624 98.304-401.408 36.864-102.4-51.2-178.176-155.648-182.272-272.384-4.096-120.832 67.584-219.136 139.264-266.24 118.784-79.872 323.584-61.44 448.512 0v139.264l28.672 34.816h-180.224l-67.584-38.912z" />
<glyph unicode="&#xe90b;" glyph-name="hamburger" d="M40.96 718.336h942.080v-71.68h-942.080v71.68zM40.96 486.912h942.080v-71.68h-942.080v71.68zM40.96 253.44h942.080v-71.68h-942.080v71.68z" />
<glyph unicode="&#xe90c;" glyph-name="home" d="M974.848 425.472c0-24.576-20.48-43.008-43.008-43.008-12.288 0-22.528 4.096-30.72 12.288v0l-393.216 393.216-391.168-393.216c-8.192-8.192-18.432-12.288-30.72-12.288-24.576 0-43.008 20.48-43.008 43.008 0 12.288 6.144 22.528 14.336 30.72l419.84 421.888c8.192 8.192 18.432 14.336 30.72 14.336v0 0 0c0 0 2.048 0 2.048 0s0 0 0 0 2.048 0 2.048 0c0 0 0 0 0 0 10.24-2.048 20.48-6.144 26.624-14.336v0l172.032-172.032v40.96c0 24.576 20.48 43.008 43.008 43.008 24.576 0 43.008-20.48 43.008-43.008v-126.976l163.84-163.84c10.24-8.192 14.336-18.432 14.336-30.72zM886.784 353.792v-305.152c0-24.576-20.48-43.008-43.008-43.008h-88.064v348.16h-174.080v-350.208h-407.552c-24.576 0-43.008 20.48-43.008 43.008v307.2l378.88 378.88 376.832-378.88zM436.224 353.792h-174.080v-174.080h174.080v174.080z" />
<glyph unicode="&#xe90d;" glyph-name="instagram" d="M800.768 919.040h-577.536c-100.352 0-182.272-81.92-182.272-182.272v-577.536c0-100.352 81.92-182.272 182.272-182.272h577.536c100.352 0 182.272 81.92 182.272 182.272v577.536c0 100.352-81.92 182.272-182.272 182.272zM851.968 810.496h20.48v-159.744h-159.744v159.744h139.264zM376.832 544.256c30.72 40.96 79.872 69.632 135.168 69.632s104.448-26.624 135.168-69.632c20.48-26.624 30.72-61.44 30.72-96.256 0-92.16-73.728-165.888-165.888-165.888s-165.888 73.728-165.888 165.888c0 36.864 12.288 69.632 30.72 96.256zM890.88 159.232c0-49.152-40.96-90.112-90.112-90.112h-577.536c-49.152 0-90.112 40.96-90.112 90.112v385.024h141.312c-12.288-30.72-18.432-61.44-18.432-96.256 0-141.312 114.688-258.048 258.048-258.048 141.312 0 258.048 114.688 258.048 258.048 0 34.816-6.144 67.584-18.432 96.256h141.312v-385.024z" />
<glyph unicode="&#xe90e;" glyph-name="licensing" d="M946.176 163.328l-415.744-172.032c-6.144-2.048-10.24-4.096-16.384-4.096s-12.288 2.048-16.384 4.096l-417.792 172.032c-16.384 6.144-26.624 22.528-26.624 38.912v661.504c0 24.576 18.432 43.008 43.008 43.008 6.144 0 12.288-2.048 16.384-4.096v0 0c0 0 0 0 0 0l399.36-165.888 399.36 165.888c0 0 0 0 0 0v0 0c4.096 2.048 10.24 4.096 16.384 4.096 24.576 0 43.008-18.432 43.008-43.008v-661.504c2.048-18.432-8.192-32.768-24.576-38.912zM471.040 663.040l-331.776 135.168v-567.296l331.776-135.168v567.296zM886.784 798.208l-329.728-135.168v-567.296l329.728 137.216v565.248zM624.64 601.6l157.696 71.68c6.144 2.048 12.288 4.096 18.432 4.096 24.576 0 43.008-18.432 43.008-43.008 0-18.432-10.24-32.768-24.576-38.912v0l-157.696-71.68c-6.144-2.048-12.288-4.096-18.432-4.096-24.576 0-43.008 18.432-43.008 43.008 0 16.384 10.24 30.72 24.576 38.912zM624.64 441.856v0l157.696 71.68c6.144 2.048 12.288 4.096 18.432 4.096 24.576 0 43.008-18.432 43.008-43.008 0-18.432-10.24-32.768-24.576-38.912l-157.696-71.68c-6.144-2.048-12.288-4.096-18.432-4.096-24.576 0-43.008 18.432-43.008 43.008 0 18.432 10.24 32.768 24.576 38.912zM624.64 284.16v0l157.696 71.68c6.144 2.048 12.288 4.096 18.432 4.096 24.576 0 43.008-18.432 43.008-43.008 0-18.432-10.24-32.768-24.576-38.912v0l-157.696-71.68c-6.144-2.048-12.288-4.096-18.432-4.096-24.576 0-43.008 18.432-43.008 43.008 0 18.432 10.24 32.768 24.576 38.912zM225.28 677.376c6.144 0 12.288-2.048 18.432-4.096v0l157.696-71.68c14.336-6.144 24.576-22.528 24.576-38.912 0-24.576-18.432-43.008-43.008-43.008-6.144 0-12.288 2.048-18.432 4.096v0l-157.696 71.68c-14.336 6.144-24.576 22.528-24.576 38.912 0 22.528 20.48 43.008 43.008 43.008zM225.28 517.632c6.144 0 12.288-2.048 18.432-4.096v0l157.696-71.68c14.336-6.144 24.576-22.528 24.576-38.912 0-24.576-18.432-43.008-43.008-43.008-6.144 0-12.288 2.048-18.432 4.096v0l-157.696 71.68c-14.336 6.144-24.576 22.528-24.576 38.912 0 24.576 20.48 43.008 43.008 43.008zM225.28 359.936c6.144 0 12.288-2.048 18.432-4.096v0l157.696-71.68c14.336-6.144 24.576-22.528 24.576-38.912 0-24.576-18.432-43.008-43.008-43.008-6.144 0-12.288 2.048-18.432 4.096v0l-157.696 71.68c-14.336 6.144-24.576 22.528-24.576 38.912 0 24.576 20.48 43.008 43.008 43.008z" />
<glyph unicode="&#xe90f;" glyph-name="nature" d="M649.216 601.6c-32.768 0-59.392-26.624-59.392-59.392s26.624-59.392 59.392-59.392 59.392 26.624 59.392 59.392-26.624 59.392-59.392 59.392zM374.784 601.6c-32.768 0-59.392-26.624-59.392-59.392s26.624-59.392 59.392-59.392c32.768 0 59.392 26.624 59.392 59.392s-26.624 59.392-59.392 59.392zM784.384 916.992v0c-38.912 0-83.968-30.72-118.784-59.392-49.152 14.336-102.4 20.48-151.552 20.48-51.2 0-102.4-6.144-151.552-20.48-34.816 28.672-79.872 59.392-118.784 59.392h-2.048c-67.584 0-196.608-104.448-198.656-276.48-2.048-98.304 10.24-165.888 40.96-196.608 10.24-10.24 34.816-26.624 51.2-34.816 8.192-124.928 36.864-204.8 100.352-249.856 34.816-24.576 86.016-36.864 124.928-43.008-2.048-8.192-2.048-16.384-2.048-22.528 0-69.632 92.16-116.736 157.696-116.736s157.696 49.152 157.696 116.736c0 8.192-2.048 16.384-2.048 22.528 100.352 14.336 212.992 73.728 233.472 296.96 16.384 8.192 34.816 22.528 43.008 30.72 30.72 30.72 43.008 100.352 40.96 196.608-8.192 172.032-137.216 276.48-204.8 276.48zM167.936 558.592c-10.24-10.24-32.768-45.056-34.816-49.152-6.144 16.384-14.336 53.248-12.288 129.024 2.048 129.024 96.256 194.56 120.832 196.608 10.24 0 28.672-10.24 49.152-24.576-43.008-45.056-90.112-114.688-92.16-200.704-6.144-22.528-16.384-34.816-30.72-51.2zM512 52.736c-34.816 0-75.776 26.624-77.824 38.912 0 26.624 18.432 49.152 38.912 63.488v-24.576c0-22.528 18.432-38.912 38.912-38.912 22.528 0 38.912 18.432 38.912 38.912v24.576c20.48-14.336 38.912-36.864 38.912-63.488-2.048-12.288-43.008-38.912-77.824-38.912zM630.784 189.952v0c-14.336 16.384-30.72 28.672-49.152 38.912 43.008 20.48 88.064 53.248 88.064 86.016 0 71.68-69.632 86.016-155.648 86.016s-155.648-14.336-155.648-86.016c0-34.816 45.056-67.584 88.064-86.016-18.432-10.24-34.816-24.576-49.152-40.96v0c-38.912 2.048-86.016 10.24-116.736 32.768-51.2 36.864-71.68 118.784-73.728 253.952 0 0 0 2.048 0 2.048 20.48 32.768 59.392 57.344 71.68 120.832 0 79.872 53.248 143.36 92.16 178.176 38.912 14.336 86.016 20.48 141.312 20.48 57.344 0 104.448-8.192 147.456-22.528 38.912-34.816 90.112-96.256 90.112-176.128 12.288-65.536 51.2-90.112 71.68-120.832 2.048-2.048 2.048-4.096 4.096-6.144-6.144-233.472-79.872-274.432-194.56-280.576zM890.88 511.488c-2.048 2.048-2.048 4.096-4.096 8.192-8.192 14.336-20.48 28.672-28.672 38.912-14.336 18.432-24.576 30.72-30.72 51.2-2.048 86.016-49.152 155.648-92.16 200.704 20.48 14.336 38.912 24.576 49.152 24.576 24.576-2.048 118.784-69.632 120.832-196.608 0-71.68-14.336-126.976-14.336-126.976z" />
<glyph unicode="&#xe910;" glyph-name="objects" d="M501.76 919.040c-196.608 0-354.304-157.696-354.304-354.304 0-122.88 63.488-231.424 157.696-294.912v-178.176c0 0 79.872-118.784 196.608-118.784s196.608 118.784 196.608 118.784v178.176c94.208 63.488 157.696 172.032 157.696 294.912 0 196.608-157.696 354.304-354.304 354.304zM501.76 841.216c151.552 0 276.48-122.88 276.48-276.48s-122.88-276.48-276.48-276.48-276.48 124.928-276.48 276.48 124.928 276.48 276.48 276.48zM382.976 230.912c36.864-12.288 75.776-20.48 118.784-20.48s81.92 8.192 118.784 20.48v-32.768c-34.816-16.384-75.776-26.624-118.784-26.624s-81.92 10.24-118.784 26.624v32.768zM393.216 110.080c34.816-10.24 71.68-18.432 108.544-18.432 38.912 0 73.728 6.144 108.544 18.432-24.576-24.576-63.488-57.344-108.544-57.344-43.008 0-83.968 30.72-108.544 57.344zM610.304 429.568v0c-32.768 0-47.104 32.768-61.44 71.68-16.384 40.96-28.672 61.44-47.104 61.44v0c-18.432 0-30.72-20.48-49.152-61.44-16.384-38.912-30.72-71.68-63.488-69.632l-10.24 2.048c-22.528 6.144-32.768 26.624-51.2 69.632-4.096 12.288-8.192 24.576-10.24 36.864-2.048 8.192-4.096 20.48-8.192 24.576 0 0-2.048 0-4.096 0-22.528 0-38.912 18.432-38.912 38.912 0 22.528 18.432 38.912 38.912 38.912v0c65.536 0 79.872-53.248 86.016-83.968 18.432 38.912 51.2 81.92 110.592 81.92s90.112-45.056 106.496-83.968c0 0 0 0 0 0 8.192 30.72 22.528 86.016 88.064 86.016h2.048c22.528 0 38.912-18.432 38.912-38.912 0-22.528-18.432-38.912-38.912-38.912v0c-6.144-2.048-10.24-18.432-12.288-28.672-4.096-12.288-6.144-24.576-12.288-36.864-16.384-38.912-30.72-69.632-63.488-69.632z" />
<glyph unicode="&#xe911;" glyph-name="people" d="M512 919.040c-260.096 0-471.040-210.944-471.040-471.040s210.944-471.040 471.040-471.040 471.040 210.944 471.040 471.040-210.944 471.040-471.040 471.040zM512 54.784c-217.088 0-393.216 176.128-393.216 393.216s176.128 393.216 393.216 393.216 393.216-176.128 393.216-393.216-176.128-393.216-393.216-393.216zM354.304 644.608c-43.008 0-77.824-34.816-77.824-77.824s34.816-77.824 77.824-77.824c43.008 0 77.824 34.816 77.824 77.824s-32.768 77.824-77.824 77.824zM669.696 644.608c-43.008 0-77.824-34.816-77.824-77.824s34.816-77.824 77.824-77.824 77.824 34.816 77.824 77.824-34.816 77.824-77.824 77.824zM638.976 329.216c-26.624-47.104-73.728-77.824-131.072-77.824s-104.448 30.72-131.072 77.824h253.952zM747.52 409.088h-471.040c0-131.072 104.448-235.52 235.52-235.52s235.52 104.448 235.52 235.52z" />
<glyph unicode="&#xe912;" glyph-name="profile" d="M937.984-23.040h-854.016c-24.576 0-45.056 20.48-45.056 45.056v854.016c0 24.576 20.48 45.056 45.056 45.056h854.016c24.576 0 45.056-20.48 45.056-45.056v-854.016c0-24.576-20.48-45.056-45.056-45.056zM129.024 830.976v-747.52c12.288 38.912 36.864 81.92 83.968 104.448 63.488 30.72 38.912 6.144 114.688 38.912 77.824 32.768 96.256 43.008 96.256 43.008v73.728c0 0-28.672 22.528-36.864 92.16-18.432-6.144-24.576 20.48-24.576 38.912 0 16.384-10.24 67.584 12.288 63.488-4.096 34.816-8.192 65.536-6.144 81.92 6.144 57.344 59.392 118.784 145.408 122.88 98.304-4.096 139.264-65.536 143.36-122.88 2.048-16.384-2.048-47.104-6.144-81.92 22.528 4.096 12.288-47.104 12.288-63.488s-6.144-43.008-24.576-38.912c-8.192-69.632-36.864-92.16-36.864-92.16v-73.728c0 0 18.432-10.24 96.256-43.008s53.248-8.192 114.688-38.912c47.104-24.576 71.68-65.536 83.968-104.448v747.52h-768z" />
<glyph unicode="&#xe913;" glyph-name="recent" d="M550.912 761.344h-77.824v-274.432h-77.824v-77.824h77.824v-77.824h77.824v77.824h157.696v77.824h-157.696v274.432zM512 919.040c-260.096 0-471.040-210.944-471.040-471.040s210.944-471.040 471.040-471.040 471.040 210.944 471.040 471.040-210.944 471.040-471.040 471.040zM512 54.784c-217.088 0-393.216 176.128-393.216 393.216s176.128 393.216 393.216 393.216 393.216-176.128 393.216-393.216-176.128-393.216-393.216-393.216z" />
<glyph unicode="&#xe914;" glyph-name="symbols" d="M40.96 919.040h432.128v-77.824h-432.128v77.824zM198.656 486.912h116.736v196.608h157.696v77.824h-432.128v-77.824h157.696v-196.608zM649.216 251.392c53.248 0 98.304 43.008 98.304 98.304s-43.008 98.304-98.304 98.304c-53.248 0-98.304-43.008-98.304-98.304s45.056-98.304 98.304-98.304zM649.216 368.128c10.24 0 20.48-8.192 20.48-18.432s-8.192-18.432-20.48-18.432-20.48 8.192-20.48 18.432c2.048 10.24 10.24 18.432 20.48 18.432zM884.736 173.568c-53.248 0-98.304-43.008-98.304-98.304s43.008-98.304 98.304-98.304c53.248 0 98.304 43.008 98.304 98.304s-43.008 98.304-98.304 98.304zM884.736 54.784c-10.24 0-20.48 8.192-20.48 18.432s8.192 18.432 20.48 18.432c10.24 0 20.48-8.192 20.48-18.432 0-8.192-10.24-18.432-20.48-18.432zM905.216 409.088l-354.304-354.304 59.392-59.392 352.256 354.304-57.344 59.392zM708.608 486.912c86.016 0 157.696 43.008 157.696 98.304v256c0 0 38.912 6.144 59.392-36.864s20.48-118.784 20.48-118.784 38.912 43.008 38.912 122.88c-2.048 110.592-120.832 110.592-120.832 110.592h-77.824v-249.856c-22.528 8.192-49.152 14.336-77.824 14.336-86.016 0-157.696-43.008-157.696-98.304s69.632-98.304 157.696-98.304zM444.416 114.176l-57.344 61.44c-30.72-24.576-49.152-38.912-57.344-45.056-12.288 12.288-38.912 38.912-79.872 86.016 34.816 32.768 57.344 57.344 67.584 73.728s14.336 34.816 14.336 53.248c0 22.528-10.24 47.104-32.768 69.632-20.48 22.528-51.2 34.816-92.16 34.816-38.912 0-69.632-12.288-92.16-34.816s-32.768-47.104-32.768-69.632c0-32.768 16.384-69.632 49.152-110.592-32.768-24.576-57.344-47.104-69.632-69.632-14.336-22.528-20.48-47.104-20.48-71.68 0-32.768 12.288-61.44 36.864-81.92 24.576-22.528 55.296-32.768 94.208-32.768 45.056 0 96.256 14.336 149.504 45.056l40.96-45.056h110.592l-81.92 94.208 53.248 43.008zM180.224 366.080c8.192 8.192 16.384 10.24 28.672 10.24s22.528-4.096 28.672-10.24c8.192-6.144 10.24-14.336 10.24-26.624 0-20.48-16.384-43.008-49.152-69.632-20.48 24.576-30.72 49.152-30.72 67.584 0 12.288 4.096 20.48 12.288 28.672zM188.416 54.784c-16.384 0-30.72 4.096-40.96 14.336-10.24 8.192-16.384 18.432-16.384 30.72 0 22.528 20.48 51.2 59.392 81.92 38.912-45.056 67.584-75.776 88.064-96.256-36.864-20.48-67.584-30.72-90.112-30.72z" />
<glyph unicode="&#xe915;" glyph-name="test-arrow-left" d="M720.896-20.992l-417.792 458.752v20.48l417.792 458.752v-45.056l-389.12-423.936 389.12-423.936v-45.056z" />
<glyph unicode="&#xe916;" glyph-name="test-arrow-right" d="M303.104 24.064l389.12 423.936-389.12 423.936v45.056l417.792-458.752v-20.48l-417.792-458.752v45.056z" />
<glyph unicode="&#xe917;" glyph-name="travel" d="M296.96 468.48c-55.296 0-98.304-45.056-98.304-98.304s45.056-98.304 98.304-98.304 98.304 45.056 98.304 98.304-43.008 98.304-98.304 98.304zM296.96 349.696c-10.24 0-20.48 8.192-20.48 20.48s8.192 20.48 20.48 20.48c10.24 0 20.48-8.192 20.48-20.48s-8.192-20.48-20.48-20.48zM733.184 468.48c-55.296 0-98.304-45.056-98.304-98.304s45.056-98.304 98.304-98.304c55.296 0 98.304 45.056 98.304 98.304s-45.056 98.304-98.304 98.304zM733.184 349.696c-10.24 0-20.48 8.192-20.48 20.48s8.192 20.48 20.48 20.48c10.24 0 20.48-8.192 20.48-20.48s-10.24-20.48-20.48-20.48zM929.792 566.784l-40.96 14.336-2.048 6.144h24.576c22.528 0 38.912 16.384 38.912 38.912 0 0 0 0 0 0v0c0 38.912-34.816 79.872-77.824 79.872h-24.576l-28.672 67.584c-14.336 51.2-61.44 90.112-114.688 90.112h-376.832c-53.248 0-98.304-40.96-114.688-90.112l-28.672-69.632h-24.576c-43.008 0-77.824-38.912-77.824-79.872v0c0 0 0 0 0 0 0-22.528 18.432-38.912 38.912-38.912h22.528l-2.048-6.144-40.96-14.336c-34.816-12.288-57.344-47.104-53.248-81.92l28.672-296.96c2.048-20.48 18.432-34.816 38.912-34.816h43.008v-38.912c0-43.008 34.816-79.872 79.872-79.872h79.872c43.008 0 79.872 34.816 79.872 79.872v38.912h237.568v-38.912c0-43.008 34.816-79.872 79.872-79.872h79.872c43.008 0 79.872 34.816 79.872 79.872v38.912h43.008c20.48 0 36.864 16.384 38.912 34.816l26.624 299.008c4.096 34.816-18.432 69.632-53.248 81.92zM288.768 749.056c4.096 16.384 20.48 34.816 38.912 34.816h376.832c18.432 0 32.768-16.384 38.912-34.816l63.488-163.84h-579.584l61.44 163.84zM317.44 112.128h-79.872v38.912h79.872v-38.912zM790.528 112.128h-79.872v38.912h79.872v-38.912zM878.592 230.912h-727.040l-26.624 260.096 32.768 16.384h710.656l32.768-16.384-22.528-260.096z" />
<glyph unicode="&#xe918;" glyph-name="twitter" d="M1007.616 755.2c-36.864-16.384-75.776-26.624-116.736-32.768 43.008 24.576 73.728 65.536 90.112 112.64-38.912-22.528-81.92-40.96-129.024-49.152-36.864 38.912-90.112 63.488-149.504 63.488-112.64 0-202.752-92.16-202.752-202.752 0-16.384 2.048-30.72 6.144-47.104-169.984 10.24-319.488 92.16-419.84 215.040-18.432-30.72-26.624-65.536-26.624-102.4 0-69.632 36.864-133.12 90.112-169.984-32.768 2.048-65.536 10.24-92.16 24.576 0 0 0-2.048 0-2.048 0-98.304 69.632-180.224 163.84-198.656-16.384-4.096-34.816-6.144-53.248-6.144-12.288 0-26.624 2.048-38.912 4.096 26.624-79.872 100.352-139.264 190.464-141.312-69.632-55.296-157.696-88.064-251.904-88.064-16.384 0-32.768 0-49.152 2.048 90.112-57.344 196.608-92.16 311.296-92.16 374.784 0 579.584 309.248 579.584 579.584 0 8.192 0 18.432 0 26.624 36.864 28.672 71.68 63.488 98.304 104.448z" />
<glyph unicode="&#xe919;" glyph-name="jsdelivr" horiz-adv-x="970" d="M481.135 945.475l-459.348-164.857 64.272-607.501 395.075-218.235 398.706 217.872 71.535 607.864-470.241 164.857zM734.956 594.701c-16.704-42.485-45.027-82.791-80.613-117.651-7.626 5.084-17.067 7.989-26.871 7.989-11.257 0-21.424-3.631-29.776-9.804-35.586 29.050-66.451 63.546-92.233 99.495 6.536 8.352 10.167 18.882 10.167 30.139 0 8.715-2.179 17.067-6.536 24.329 36.312 35.586 76.982 65.362 118.014 84.97 46.843-28.323 84.244-69.719 107.847-119.467zM654.343 434.928c0-14.888-11.983-27.234-27.234-27.234s-27.234 11.983-27.234 27.234c0 14.888 11.983 27.234 27.234 27.234s27.234-12.346 27.234-27.234zM376.919 392.806c2.542 19.972 7.626 38.491 13.072 54.105 12.709 37.401 33.044 75.166 58.462 110.752 5.447-2.179 11.257-3.268 17.43-3.268 4.721 0 9.078 0.726 13.072 1.816 6.899-9.804 14.525-19.609 22.15-29.050 26.145-32.318 52.652-58.099 78.434-78.797-1.089-4.357-1.816-8.715-1.816-13.435 0-5.447 1.089-10.894 2.542-15.977-44.664-27.597-94.411-47.206-144.159-54.468-9.441-1.452-19.245-2.542-29.413-2.905-5.084 14.525-15.977 25.782-29.776 31.228zM385.634 346.326c0-14.888-11.983-27.234-27.234-27.234-14.888 0-27.234 11.983-27.234 27.234 0 14.888 11.983 27.234 27.234 27.234s27.234-12.346 27.234-27.234zM438.287 604.868c0 14.888 11.983 27.234 27.234 27.234 14.888 0 27.234-11.983 27.234-27.234 0-14.888-11.983-27.234-27.234-27.234-14.888 0-27.234 11.983-27.234 27.234zM482.224 754.837c39.217 0 76.255-7.989 110.026-22.513-37.038-20.698-73.713-49.021-106.757-81.702-6.173 2.542-12.709 3.994-19.972 3.994-2.542 0-4.721-0.363-7.262-0.726-16.34 34.496-26.508 67.904-29.776 95.501 17.43 3.631 35.223 5.447 53.742 5.447zM202.258 474.871c0 124.913 81.702 230.582 194.996 266.53 3.994-31.228 15.251-66.088 32.318-102.037-8.715-9.078-14.162-21.424-14.162-34.86 0-9.804 2.905-18.882 7.626-26.871-27.96-38.491-50.111-79.887-63.909-120.556-7.262-21.424-11.983-42.485-14.525-63.183-11.983-3.631-22.15-11.257-28.687-21.787-38.854 12.346-78.071 35.949-112.567 78.071-0.726 8.352-1.089 16.704-1.089 24.692zM214.241 393.895c28.323-23.966 59.915-41.759 94.411-52.289 2.179-22.877 19.609-41.033 42.122-44.301 5.084-18.519 12.709-36.312 22.877-53.016 7.626-12.709 17.793-25.418 30.502-37.765-90.78 26.145-162.315 96.953-189.912 187.37zM482.224 195.268c-4.357 0-9.078 0-13.435 0.363-31.955 21.424-54.105 43.211-67.54 64.999-8.352 13.799-14.162 27.96-18.519 42.122 10.53 5.81 18.519 15.251 22.877 26.871 11.62 0.363 23.24 1.452 34.86 3.268 54.831 7.989 109.662 29.776 158.684 60.641 7.989-5.447 17.793-8.715 27.96-8.715 12.346 0 23.603 4.357 32.318 11.983 30.502-14.888 58.462-23.24 81.339-27.96-41.396-102.037-141.617-173.572-258.542-173.572zM751.66 399.705c-26.145 4.721-51.2 13.435-75.166 24.692 0.726 3.268 1.089 6.899 1.089 10.53 0 6.173-1.089 11.983-3.268 17.43 31.228 30.139 57.736 64.272 76.618 100.584 7.262-24.692 10.894-50.837 10.894-77.708 0-26.508-3.631-51.563-10.167-75.529z" />
<glyph unicode="&#xe91a;" glyph-name="github" d="M512 960c-282.75 0-512-229.25-512-512 0-226.25 146.688-418.125 350.156-485.812 25.594-4.688 34.938 11.125 34.938 24.625 0 12.188-0.469 52.562-0.719 95.312-142.375-30.937-172.469 60.375-172.469 60.375-23.312 59.125-56.844 74.875-56.844 74.875-46.531 31.75 3.53 31.125 3.53 31.125 51.406-3.562 78.47-52.75 78.47-52.75 45.688-78.25 119.875-55.625 149-42.5 4.654 33 17.904 55.625 32.5 68.375-113.656 12.937-233.218 56.875-233.218 253.063 0 55.938 19.969 101.562 52.656 137.406-5.219 13-22.844 65.094 5.062 135.562 0 0 42.938 13.75 140.812-52.5 40.812 11.406 84.594 17.031 128.125 17.219 43.5-0.188 87.312-5.875 128.188-17.281 97.688 66.312 140.688 52.5 140.688 52.5 28-70.531 10.375-122.562 5.125-135.5 32.812-35.844 52.625-81.469 52.625-137.406 0-196.688-119.75-240-233.812-252.688 18.438-15.875 34.75-47 34.75-94.75 0-68.438-0.688-123.625-0.688-140.5 0-13.625 9.312-29.562 35.25-24.562 203.313 67.812 349.875 259.687 349.875 485.812 0 282.75-229.25 512-512 512z" />
<glyph unicode="&#xe91b;" glyph-name="close" d="M1024 857.6l-102.4 102.4-409.6-409.6-409.6 409.6-102.4-102.4 409.6-409.6-409.6-409.6 102.4-102.4 409.6 409.6 409.6-409.6 102.4 102.4-409.6 409.6z" />
<glyph unicode="&#xe91c;" glyph-name="plus" d="M992 576h-352v352c0 17.672-14.328 32-32 32h-192c-17.672 0-32-14.328-32-32v-352h-352c-17.672 0-32-14.328-32-32v-192c0-17.672 14.328-32 32-32h352v-352c0-17.672 14.328-32 32-32h192c17.672 0 32 14.328 32 32v352h352c17.672 0 32 14.328 32 32v192c0 17.672-14.328 32-32 32z" />
<glyph unicode="&#xe91d;" glyph-name="minus" d="M0 544v-192c0-17.672 14.328-32 32-32h960c17.672 0 32 14.328 32 32v192c0 17.672-14.328 32-32 32h-960c-17.672 0-32-14.328-32-32z" />
<glyph unicode="&#xe91e;" glyph-name="heart" horiz-adv-x="1280" d="M1260.16 743.253c-136.32 360.96-579.2 199.040-620.16 18.773-56.32 192-488.32 335.36-620.16-18.987-147.84-394.667 568.96-749.013 620.16-807.040 51.2 46.080 768 418.987 620.16 807.253z" />
<glyph unicode="&#xed01;" glyph-name="yin-yang" d="M448 704c0 35.346 28.654 64 64 64s64-28.654 64-64c0-35.346-28.654-64-64-64s-64 28.654-64 64zM512 960c-282.77 0-512-229.23-512-512s229.23-512 512-512 512 229.23 512 512-229.23 512-512 512zM512 128c-35.348 0-64 28.652-64 64s28.652 64 64 64c35.346 0 64-28.652 64-64s-28.654-64-64-64zM512 448c-114.876 0-208-93.124-208-208s93.124-208 208-208c-229.75 0-416 186.25-416 416s186.25 416 416 416c114.876 0 208-93.124 208-208s-93.124-208-208-208z" />
<glyph unicode="&#xed66;" glyph-name="cancel-circle2" d="M512 960c-282.77 0-512-229.23-512-512s229.23-512 512-512 512 229.23 512 512-229.23 512-512 512zM768 288l-96-96-160 160-160-160-96 96 160 160-160 160 96 96 160-160 160 160 96-96-160-160 160-160z" />
</font>
</defs>
</svg>
